<?xml version="1.0" encoding="UTF-8"?>
<svg version="1.1" xmlns="http://www.w3.org/2000/svg" width="512" height="512">
<path d="M0 0 C17.28529583 14.39049588 29.32431557 33.38708293 32.42578125 56.01953125 C32.8386075 62.35394684 32.67379204 68.68147774 32.42578125 75.01953125 C33.7715625 74.96732422 33.7715625 74.96732422 35.14453125 74.9140625 C58.66933541 74.40371034 79.62562065 81.30426954 97.01953125 97.65234375 C98.210625 98.82410156 98.210625 98.82410156 99.42578125 100.01953125 C100.5859375 101.16035156 100.5859375 101.16035156 101.76953125 102.32421875 C111.59652866 112.58871947 117.29898519 124.53643642 121.42578125 138.01953125 C121.79509766 139.13134766 121.79509766 139.13134766 122.171875 140.265625 C124.41160357 148.1896302 123.58408545 156.86686513 123.42578125 165.01953125 C124.46734375 164.98472656 125.50890625 164.94992188 126.58203125 164.9140625 C150.91342625 164.34708401 173.00034866 170.71659302 191.01953125 187.65234375 C191.81359375 188.43351563 192.60765625 189.2146875 193.42578125 190.01953125 C194.19921875 190.78007812 194.97265625 191.540625 195.76953125 192.32421875 C212.59563168 209.89942639 218.15093396 232.22640131 217.73046875 255.9609375 C217.0257269 274.62494792 209.52127256 291.81665851 197.42578125 306.01953125 C196.9565625 306.57261963 196.48734375 307.12570801 196.00390625 307.69555664 C191.22274561 312.93027453 185.99345095 315.53496977 179.55078125 318.33203125 C178.43783691 318.8307373 177.32489258 319.32944336 176.17822266 319.84326172 C172.98136296 321.26965844 169.778255 322.6797531 166.57055664 324.08148193 C164.32757874 325.06248157 162.08643559 326.04757423 159.84570312 327.03369141 C153.07714055 330.01213689 146.30700675 332.98692634 139.53125 335.94897461 C127.16988217 341.35519585 114.84843588 346.84499237 102.55078125 352.39453125 C101.70621368 352.77557007 100.86164612 353.15660889 99.9914856 353.54919434 C96.69508741 355.03645576 93.39869877 356.52373829 90.10243225 358.0112915 C80.20869395 362.47409437 70.28741683 366.87445474 60.36474609 371.27246094 C52.88795733 374.58757927 45.41534801 377.91212049 37.94174194 381.23440552 C33.08493262 383.39341468 28.22802953 385.55221284 23.37109375 387.7109375 C22.38987045 388.14705856 21.40864716 388.58317963 20.39768982 389.03251648 C14.43097794 391.68436472 8.4638328 394.33523535 2.49633789 396.98532104 C-15.89453615 405.15247606 -34.28476851 413.32035419 -52.64086914 421.56542969 C-59.4380571 424.61765279 -66.24153857 427.65500155 -73.05493164 430.67089844 C-75.33995631 431.6863215 -77.62177547 432.7089922 -79.90014648 433.73925781 C-84.99056021 436.03532422 -90.06001061 438.23812102 -95.30859375 440.1484375 C-110.92310498 446.07261603 -120.35066959 456.05420403 -131.58259583 467.92230225 C-145.92403996 482.94644865 -167.65463477 493.95577145 -188.5559082 495.1965332 C-219.67454183 495.80546569 -243.89750366 490.07284264 -267.2578125 468.44702148 C-284.45356902 451.73432395 -294.49676403 428.24361092 -294.86694336 404.39941406 C-295.02808818 374.31108985 -286.46018462 351.6341552 -265.34277344 329.73388672 C-263.3621822 327.81399278 -261.28455688 326.05139839 -259.17578125 324.2734375 C-245.26848586 312.16907132 -239.26802098 298.90409085 -232.78414917 282.16236877 C-228.66710018 271.56831037 -224.12202927 261.15769215 -219.61767578 250.72399902 C-218.06279173 247.11803058 -216.51465757 243.50923916 -214.96875 239.89941406 C-207.99048303 223.60553184 -200.95388652 207.33752369 -193.88671875 191.08203125 C-184.39947389 169.25889624 -174.99667106 147.40075955 -165.63923645 125.52168274 C-162.31755628 117.75519341 -158.99165569 109.99052002 -155.6640625 102.2265625 C-155.16412781 101.05954803 -154.66419312 99.89253357 -154.14910889 98.69015503 C-151.61917303 92.78543228 -149.08552978 86.88235109 -146.54443359 80.98242188 C-142.03176365 70.49481336 -137.54512865 60.00031331 -133.2026062 49.44088745 C-131.34458394 44.92685865 -129.46747499 40.42087873 -127.58911133 35.9152832 C-126.71779985 33.80936005 -125.85613472 31.69941458 -125.00512695 29.58520508 C-116.65676288 8.85401997 -105.92449947 -2.52592178 -85.04296875 -11.625 C-56.41047228 -22.81359941 -24.60098064 -18.31636038 0 0 Z M-77.57421875 31.01953125 C-77.57421875 34.74442712 -76.31265414 35.64130453 -73.78875732 38.20046997 C-73.2308551 38.75072845 -72.67295288 39.30098694 -72.09814453 39.86791992 C-71.22514206 40.74639839 -71.22514206 40.74639839 -70.33450317 41.6426239 C-68.40351718 43.58173394 -66.4618554 45.50975198 -64.51953125 47.4375 C-63.17859672 48.77791618 -61.83817953 50.11885008 -60.4982605 51.46028137 C-57.68664047 54.2718116 -54.86991334 57.07809159 -52.04931641 59.88061523 C-48.42676744 63.48046602 -44.81540613 67.09129538 -41.20756721 70.70588207 C-38.44052209 73.47626195 -35.66852591 76.24164275 -32.89489365 79.00542641 C-31.56104748 80.33541258 -30.22856018 81.66676295 -28.89743423 82.99947166 C-27.03953218 84.85774287 -25.17529344 86.70940507 -23.30908203 88.55932617 C-22.75522827 89.11565735 -22.20137451 89.67198853 -21.6307373 90.24517822 C-19.07751391 93.12178128 -19.07751391 93.12178128 -15.57421875 94.01953125 C-14.77466874 92.50282761 -13.98500487 90.98091127 -13.19921875 89.45703125 C-12.75835937 88.61011719 -12.3175 87.76320313 -11.86328125 86.890625 C-7.24731388 76.60960676 -6.75653248 63.90194508 -10.60546875 53.24609375 C-16.1703092 40.45593627 -23.95676151 32.16201043 -36.57421875 26.01953125 C-51.1284729 20.49895209 -64.39159437 23.58677495 -77.57421875 31.01953125 Z M-97.57421875 72.01953125 C-100.55713357 78.70757073 -103.53454857 85.39795312 -106.5 92.09375 C-108.23022862 96.00029413 -109.9694745 99.9016256 -111.7421875 103.7890625 C-112.29057239 105.01162556 -112.83877526 106.23427029 -113.38671875 107.45703125 C-113.84691406 108.46636719 -114.30710938 109.47570312 -114.78125 110.515625 C-115.69267484 113.3935724 -115.63772209 114.23941829 -114.57421875 117.01953125 C-112.71969431 119.30935107 -112.71969431 119.30935107 -110.32983398 121.60449219 C-109.42897568 122.5051239 -108.52811737 123.40575562 -107.59996033 124.3336792 C-106.61107027 125.30724997 -105.62201714 126.28065512 -104.6328125 127.25390625 C-103.62467756 128.25644416 -102.61720429 129.25964784 -101.61036682 130.26348877 C-98.96190656 132.90050871 -96.30456045 135.52839449 -93.64526367 138.15447998 C-90.93191338 140.83711196 -88.2270627 143.52828377 -85.52148438 146.21875 C-80.2140118 151.49407277 -74.89712305 156.75977496 -69.57421875 162.01953125 C-66.08363685 158.57663193 -62.97671143 155.11520265 -60.01171875 151.20703125 C-59.5955127 150.66022705 -59.17930664 150.11342285 -58.75048828 149.55004883 C-57.35322398 147.71039453 -55.96295014 145.86563479 -54.57421875 144.01953125 C-54.03651855 143.30539063 -53.49881836 142.59125 -52.94482422 141.85546875 C-49.47952156 137.24977561 -46.02392205 132.63691763 -42.57421875 128.01953125 C-44.16177203 124.16104385 -46.62622279 121.7200466 -49.55883789 118.79199219 C-50.06470932 118.28422241 -50.57058075 117.77645264 -51.09178162 117.2532959 C-52.75947113 115.58191157 -54.43423349 113.91781913 -56.109375 112.25390625 C-57.27033833 111.09413518 -58.43093208 109.93399404 -59.59117126 108.77349854 C-62.02002018 106.34621206 -64.45218786 103.92231833 -66.88696289 101.50097656 C-70.01510708 98.3898692 -73.13658042 95.2721719 -76.25583744 92.15215683 C-78.64978233 89.75848311 -81.0463187 87.36741871 -83.4437542 84.97724152 C-84.59625934 83.82792791 -85.74815156 82.67799936 -86.89943123 81.52745819 C-88.50344835 79.92559683 -90.11070678 78.3270646 -91.71899414 76.72949219 C-92.63451553 75.81778259 -93.55003693 74.906073 -94.49330139 73.96673584 C-96.2209347 71.90565489 -96.2209347 71.90565489 -97.57421875 72.01953125 Z M13.42578125 124.01953125 C19.10088012 130.94064121 25.43447751 137.19220435 31.75390625 143.515625 C32.9513054 144.71624139 34.14863086 145.91693127 35.34588623 147.11769104 C37.84210363 149.61986594 40.34034842 152.11999623 42.83984375 154.61889648 C46.04850297 157.82745337 49.25018639 161.04287718 52.45021439 164.26003933 C54.91398421 166.73489085 57.38224815 169.20522141 59.85182953 171.67427254 C61.03523005 172.85885557 62.21700372 174.04506611 63.39713287 175.23290825 C65.03904678 176.8845601 66.68710255 178.52982627 68.33691406 180.17358398 C68.82523712 180.66752655 69.31356018 181.16146912 69.81668091 181.67037964 C72.17486524 184.28651796 72.17486524 184.28651796 75.42578125 185.01953125 C76.22264731 183.48054564 77.01301266 181.93819341 77.80078125 180.39453125 C78.46207031 179.10675781 78.46207031 179.10675781 79.13671875 177.79296875 C84.01473428 167.29784443 84.27426064 154.86660534 80.36328125 143.95703125 C75.00587171 132.02666547 65.72576747 122.75395535 53.42578125 118.01953125 C39.19300287 113.4155826 25.91649199 116.38118896 13.42578125 124.01953125 Z M-133.57421875 156.01953125 C-139.30035033 167.92170475 -144.47489054 180.03873327 -149.61801147 192.20172119 C-152.14461808 198.1752023 -154.6808185 204.1446045 -157.21875 210.11328125 C-157.47955164 210.72677555 -157.74035328 211.34026985 -158.009058 211.97235489 C-163.85788993 225.72622775 -169.80085884 239.43886844 -175.76171875 253.14453125 C-176.73424132 255.38166053 -177.70673521 257.61880229 -178.67919922 259.85595703 C-180.06468981 263.04302642 -181.45023227 266.23007317 -182.83599854 269.41702271 C-186.47121573 277.77846426 -190.09705778 286.14379378 -193.69921875 294.51953125 C-194.36280396 296.05504639 -194.36280396 296.05504639 -195.03979492 297.62158203 C-198.0698719 304.68514444 -200.85605213 311.8305633 -203.57421875 319.01953125 C-200.93421875 321.65953125 -198.29421875 324.29953125 -195.57421875 327.01953125 C-190.96898147 322.72769386 -187.35878997 317.89406748 -183.63671875 312.83203125 C-178.64507717 306.10798198 -173.60789492 299.42891903 -168.44921875 292.83203125 C-162.30689388 284.97116412 -156.23236242 277.06105562 -150.18310547 269.12841797 C-147.48336026 265.58966241 -144.77850658 262.05481574 -142.07421875 258.51953125 C-140.98696102 257.09767012 -139.89972142 255.67579514 -138.8125 254.25390625 C-136.68540257 251.47226818 -134.55776789 248.69104237 -132.4296875 245.91015625 C-119.74347641 229.33075988 -107.06599139 212.74620408 -94.57421875 196.01953125 C-95.97786988 192.84423549 -97.63838816 190.70691457 -100.09008789 188.26074219 C-101.16614037 187.18007477 -101.16614037 187.18007477 -102.26393127 186.07757568 C-103.42492592 184.92735931 -103.42492592 184.92735931 -104.609375 183.75390625 C-105.40323105 182.96050842 -106.1970871 182.1671106 -107.01499939 181.34967041 C-108.69130939 179.67637867 -110.37004634 178.00551524 -112.05102539 176.33691406 C-114.63551881 173.77072269 -117.21187522 171.19657357 -119.78710938 168.62109375 C-121.41489242 166.99822419 -123.0431319 165.37581228 -124.671875 163.75390625 C-125.44789566 162.97899841 -126.22391632 162.20409058 -127.02345276 161.40570068 C-127.73766891 160.69786438 -128.45188507 159.99002808 -129.18774414 159.26074219 C-129.81902725 158.63327087 -130.45031036 158.00579956 -131.10072327 157.35931396 C-132.36560975 155.90740806 -132.36560975 155.90740806 -133.57421875 156.01953125 Z M-13.57421875 157.01953125 C-14.98601715 158.4649626 -14.98601715 158.4649626 -16.41015625 160.39453125 C-16.97460449 161.12559082 -17.53905273 161.85665039 -18.12060547 162.60986328 C-18.72404785 163.40505371 -19.32749023 164.20024414 -19.94921875 165.01953125 C-20.56684082 165.82374512 -21.18446289 166.62795898 -21.82080078 167.45654297 C-27.8015528 175.26317531 -33.70471402 183.12902489 -39.57421875 191.01953125 C-34.69697438 196.89928175 -29.43534997 202.28833942 -24.01953125 207.671875 C-23.11798309 208.57200821 -22.21643494 209.47214142 -21.28756714 210.39955139 C-18.91223658 212.77025948 -16.5347647 215.1387764 -14.15618896 217.50622559 C-11.72077158 219.93133853 -9.28824963 222.3593521 -6.85546875 224.78710938 C-2.09769106 229.53390253 2.66293505 234.27782406 7.42578125 239.01953125 C8.86273785 238.07248559 10.29824964 237.12324748 11.7331543 236.1730957 C12.53271042 235.6447261 13.33226654 235.11635651 14.15605164 234.57197571 C17.00962292 232.62019656 19.62145057 230.46446887 22.23828125 228.20703125 C27.34385789 223.86827421 32.59899962 219.85490747 38.02734375 215.9296875 C40.61238096 214.07036091 40.61238096 214.07036091 42.42578125 211.01953125 C35.4254632 203.97295351 28.41981283 196.9317261 21.40722847 189.89735413 C18.15147341 186.63114421 14.89761198 183.36309262 11.64794922 180.09082031 C8.5141062 176.93530951 5.37545889 173.7846531 2.23336411 170.63735962 C1.03308153 169.43337035 -0.16543407 168.22761697 -1.3621788 167.02011108 C-3.03357665 165.33427894 -4.71104353 163.65472514 -6.39013672 161.9765625 C-6.88788605 161.47162262 -7.38563538 160.96668274 -7.89846802 160.44644165 C-10.28278653 157.78119206 -10.28278653 157.78119206 -13.57421875 157.01953125 Z M104.42578125 215.01953125 C110.16667011 222.04258154 116.62271581 228.34296735 123.04296875 234.734375 C124.26772614 235.95726441 125.49226078 237.18037695 126.71658325 238.40370178 C129.92006759 241.60339081 133.12654491 244.80006373 136.3336792 247.99609375 C139.61360741 251.26574325 142.89066251 254.53826965 146.16796875 257.81054688 C152.5844489 264.21634244 159.00409825 270.61895174 165.42578125 277.01953125 C169.12666741 275.34207978 170.29168529 274.03748177 172.05078125 270.33203125 C172.45554687 269.50316406 172.8603125 268.67429687 173.27734375 267.8203125 C177.88822371 256.57541137 178.13887424 244.11509979 173.75 232.765625 C167.33276951 219.45791693 158.01352215 212.31460124 144.40234375 207.26953125 C130.52252499 203.05287745 115.98344779 206.8611784 104.42578125 215.01953125 Z M-65.57421875 225.01953125 C-66.93666872 226.39896973 -66.93666872 226.39896973 -68.3046875 228.25390625 C-68.85253906 228.96289062 -69.40039062 229.671875 -69.96484375 230.40234375 C-70.5578125 231.18351563 -71.15078125 231.9646875 -71.76171875 232.76953125 C-72.38175781 233.57648438 -73.00179687 234.3834375 -73.640625 235.21484375 C-78.80336424 241.95335882 -83.88824762 248.75073296 -88.96557617 255.55371094 C-93.66642692 261.84256384 -98.46554864 268.04773151 -103.3046875 274.23046875 C-107.63281838 279.77436673 -111.86810427 285.38264388 -116.07421875 291.01953125 C-121.45094739 298.22345868 -126.9090185 305.35559615 -132.44311523 312.43920898 C-136.90714878 318.15400409 -141.33194732 323.89726386 -145.72412109 329.66748047 C-148.5423994 333.36944887 -151.37772302 337.05626242 -154.2421875 340.72265625 C-154.841521 341.49407959 -155.44085449 342.26550293 -156.05834961 343.06030273 C-157.20889868 344.54044363 -158.36442824 346.01673069 -159.52563477 347.48852539 C-160.04182373 348.15489014 -160.5580127 348.82125488 -161.08984375 349.5078125 C-161.54649414 350.09087158 -162.00314453 350.67393066 -162.47363281 351.2746582 C-163.70214805 353.22235084 -164.28602016 354.73463225 -164.57421875 357.01953125 C-162.93633773 359.26475842 -162.93633773 359.26475842 -160.63671875 361.26953125 C-159.88519531 361.9759375 -159.13367188 362.68234375 -158.359375 363.41015625 C-157.77027344 363.94125 -157.18117187 364.47234375 -156.57421875 365.01953125 C-151.73605931 363.48011688 -148.41632108 360.70588299 -144.57421875 357.51953125 C-143.23389335 356.42737778 -141.89273315 355.33624808 -140.55078125 354.24609375 C-139.54772949 353.42866699 -139.54772949 353.42866699 -138.52441406 352.59472656 C-135.70142175 350.31456302 -132.83203606 348.09828493 -129.94921875 345.89453125 C-129.41772217 345.48750977 -128.88622559 345.08048828 -128.33862305 344.66113281 C-126.75113587 343.44641884 -125.16268229 342.23296817 -123.57421875 341.01953125 C-115.43315745 334.77632246 -107.32243883 328.49561897 -99.2277832 322.19238281 C-94.85361164 318.78773221 -90.47104505 315.39487265 -86.07421875 312.01953125 C-77.87723501 305.72523508 -69.72817881 299.36939803 -61.57421875 293.01953125 C-58.47038723 290.60243372 -55.36629612 288.18567074 -52.26171875 285.76953125 C-51.51615723 285.18929199 -50.7705957 284.60905273 -50.00244141 284.01123047 C-44.44270298 279.68753554 -38.86462927 275.38839473 -33.2734375 271.10546875 C-30.68399835 269.10436816 -28.12325182 267.07175824 -25.57421875 265.01953125 C-26.97642524 261.85153051 -28.63336041 259.70777457 -31.07421875 257.26074219 C-31.78835938 256.54029724 -32.5025 255.81985229 -33.23828125 255.07757568 C-34.00914062 254.31076477 -34.78 253.54395386 -35.57421875 252.75390625 C-36.36570312 251.96050842 -37.1571875 251.1671106 -37.97265625 250.34967041 C-39.64467612 248.67629071 -41.31921972 247.00542944 -42.99609375 245.33691406 C-45.57134273 242.77239528 -48.13572927 240.19736136 -50.69921875 237.62109375 C-52.32357759 235.99805598 -53.94855644 234.37563844 -55.57421875 232.75390625 C-56.34507812 231.97899841 -57.1159375 231.20409058 -57.91015625 230.40570068 C-58.98136719 229.34394623 -58.98136719 229.34394623 -60.07421875 228.26074219 C-60.70328125 227.63327087 -61.33234375 227.00579956 -61.98046875 226.35931396 C-63.48235894 224.80503697 -63.48235894 224.80503697 -65.57421875 225.01953125 Z M66.67578125 244.89453125 C62.46398422 248.37431687 58.20555379 251.7668868 53.86328125 255.08203125 C48.31996757 259.31603717 42.85127615 263.63504553 37.42578125 268.01953125 C42.24015563 273.81789021 47.41826557 279.1423491 52.76171875 284.453125 C53.64107086 285.33106216 54.52042297 286.20899933 55.42642212 287.11354065 C58.21552183 289.89707537 61.00809143 292.67709894 63.80078125 295.45703125 C65.70103545 297.3516979 67.60052778 299.24712755 69.5 301.14257812 C74.13928729 305.77088286 78.78142292 310.39631546 83.42578125 315.01953125 C88.42345685 313.46423801 93.12107643 311.46395834 97.88671875 309.32421875 C98.67728668 308.97191193 99.46785461 308.6196051 100.28237915 308.25662231 C102.78969416 307.13854941 105.29525373 306.01660323 107.80078125 304.89453125 C109.50769776 304.13255543 111.21472785 303.37083396 112.921875 302.609375 C117.09116396 300.74903507 121.25888372 298.88522111 125.42578125 297.01953125 C125.42578125 293.45541328 124.48777061 292.72740058 122.07344055 290.28282166 C121.57942245 289.79801834 121.08540436 289.31321503 120.57641602 288.8137207 C120.06108307 288.29634338 119.54575012 287.77896606 119.01480103 287.24591064 C117.30609955 285.534196 115.58688295 283.83347602 113.8671875 282.1328125 C112.68072848 280.94940986 111.49485823 279.76541666 110.30955505 278.58085632 C107.82312177 276.09902926 105.33185253 273.62219996 102.83666992 271.14916992 C99.63053796 267.97135132 96.43317599 264.78489015 93.23893833 261.59512043 C90.79029313 259.15062192 88.33882895 256.70896842 85.88630486 254.26836205 C84.70602249 253.09379577 83.52621979 251.91874731 82.34689522 250.74321938 C80.70205139 249.10521277 79.05386808 247.4706489 77.40454102 245.8371582 C76.91254715 245.3462822 76.42055328 244.85540619 75.91365051 244.34965515 C71.47490265 239.96756832 71.38075209 240.96465676 66.67578125 244.89453125 Z M-2.88671875 298.89453125 C-4.16879425 299.91726439 -5.45135631 300.93938784 -6.734375 301.9609375 C-7.38164551 302.4780127 -8.02891602 302.99508789 -8.69580078 303.52783203 C-11.38175986 305.66082007 -14.10081902 307.74698254 -16.82421875 309.83203125 C-21.98650708 313.79015729 -27.1281116 317.77428155 -32.26171875 321.76953125 C-33.01960693 322.35935791 -33.77749512 322.94918457 -34.55834961 323.55688477 C-36.89717742 325.37750412 -39.23574687 327.19845476 -41.57421875 329.01953125 C-50.75409886 336.16832954 -59.93876257 343.30948408 -69.16796875 350.39453125 C-73.31663243 353.585811 -77.44454356 356.80374425 -81.57421875 360.01953125 C-86.72979227 364.0341875 -91.89106103 368.04054148 -97.07421875 372.01953125 C-99.24129866 373.68566421 -101.4079827 375.35230211 -103.57421875 377.01953125 C-104.3130127 377.58768555 -105.05180664 378.15583984 -105.81298828 378.74121094 C-108.25661104 380.62258857 -110.69693395 382.50818006 -113.13671875 384.39453125 C-114.29880859 385.28785156 -114.29880859 385.28785156 -115.484375 386.19921875 C-116.2165625 386.76640625 -116.94875 387.33359375 -117.703125 387.91796875 C-118.3535376 388.41989746 -119.0039502 388.92182617 -119.67407227 389.43896484 C-121.75526268 391.17012593 -123.66002542 393.10533792 -125.57421875 395.01953125 C-122.60421875 397.98953125 -119.63421875 400.95953125 -116.57421875 404.01953125 C-108.81772596 401.69429945 -101.60657571 398.39664518 -94.28530884 394.98614502 C-90.40176536 393.17861665 -86.50991617 391.38920677 -82.6171875 389.6015625 C-81.79901047 389.22582092 -80.98083344 388.85007935 -80.13786316 388.46295166 C-70.93458655 384.24939658 -61.66308725 380.19394748 -52.38671875 376.14453125 C-38.59909834 370.12204524 -24.84880103 364.02463829 -11.13671875 357.83203125 C6.67178226 349.78986379 24.53330843 341.87296345 42.42578125 334.01953125 C42.73525341 331.03763102 42.73525341 331.03763102 41.03457642 329.25410461 C40.3833078 328.60346542 39.73203918 327.95282623 39.06103516 327.2824707 C38.32672272 326.54192947 37.59241028 325.80138824 36.83584595 325.03840637 C36.03279022 324.24456039 35.2297345 323.45071442 34.40234375 322.6328125 C33.58583344 321.81580368 32.76932312 320.99879486 31.92807007 320.1570282 C30.19815023 318.42945175 28.46452931 316.70557477 26.72753906 314.98510742 C24.06010418 312.3412717 21.4062383 309.68436827 18.75390625 307.02539062 C17.07500992 305.3520704 15.39534799 303.67951791 13.71484375 302.0078125 C12.91583649 301.20789383 12.11682922 300.40797516 11.29360962 299.58381653 C10.55299286 298.85273178 9.8123761 298.12164703 9.04931641 297.3684082 C8.3964566 296.72015579 7.7435968 296.07190338 7.07095337 295.40400696 C3.21009554 292.15494638 0.27374083 296.33777876 -2.88671875 298.89453125 Z M-235.26171875 358.45703125 C-247.21591311 370.4863242 -253.9912169 382.77175545 -254.19921875 400.01953125 C-253.99594503 415.65677042 -248.46054541 427.90916454 -237.69921875 439.26953125 C-226.07175342 450.27686509 -212.84137434 454.82816841 -196.99902344 454.60888672 C-176.72086571 453.71048733 -163.98531581 442.00630338 -150.57421875 428.01953125 C-154.42302373 423.34277562 -158.45548103 419.13506987 -162.94921875 415.08203125 C-171.26039818 407.46910727 -179.17828199 399.47535732 -187.09716797 391.45922852 C-193.141964 385.34115649 -193.141964 385.34115649 -199.51953125 379.57421875 C-205.34644847 374.5982307 -210.63124551 369.02999139 -216.01171875 363.58203125 C-218.17424121 361.39299414 -220.34001912 359.20725341 -222.5078125 357.0234375 C-223.00252548 356.52042618 -223.49723846 356.01741486 -224.00694275 355.49916077 C-225.17725827 354.3203415 -226.37316674 353.16701867 -227.57421875 352.01953125 C-230.25154472 352.01953125 -233.46240466 356.66456126 -235.26171875 358.45703125 Z " fill="#71C6CB" transform="translate(294.57421875,16.98046875)"/>
</svg>
